<?xml version="1.0" encoding="iso-8859-1"?>
<!-- Generator: Adobe Illustrator 19.0.0, SVG Export Plug-In . SVG Version: 6.00 Build 0)  -->
<svg version="1.1" id="Capa_1" xmlns="http://www.w3.org/2000/svg" xmlns:xlink="http://www.w3.org/1999/xlink" x="0px" y="0px"
	 viewBox="0 0 512 512" style="enable-background:new 0 0 512 512;" xml:space="preserve">
<path style="fill:#546E7A;" d="M354.571,373.653c-5.714-1.424-11.501,2.052-12.928,7.765c-0.143,0.853-0.179,1.72-0.107,2.581
	H170.464c0.073-0.862,0.037-1.729-0.107-2.581c-1.427-5.713-7.214-9.189-12.928-7.765c-18.475,4.629-61.419,17.984-61.419,42.347
	v42.667c0.003,2.192,0.681,4.33,1.941,6.123C99.275,466.731,132.533,512,255.989,512s156.715-45.269,158.059-47.211
	c1.261-1.793,1.939-3.931,1.941-6.123V416C415.989,391.616,373.045,378.261,354.571,373.653z"/>
<path style="fill:#607D8B;" d="M371.552,410.133c-0.619-0.939-62.229-95.445-62.229-186.133c0-5.891-4.776-10.667-10.667-10.667
	h-85.333c-5.891,0-10.667,4.776-10.667,10.667c0,90.688-61.611,185.195-62.229,186.133c-2.985,4.55-2.065,10.618,2.133,14.08
	C145.461,426.667,173.643,448,255.989,448s110.528-21.333,113.451-23.787C373.632,420.745,374.542,414.679,371.552,410.133z"/>
<path style="fill:#455A64;" d="M350.965,176.789c-1.707-3.648-9.813-16.021-42.219-22.827c-0.702-0.148-1.416-0.226-2.133-0.235
	H205.429c-0.717,0.008-1.432,0.087-2.133,0.235c-32.427,6.805-40.533,19.2-42.219,22.827c-0.694,1.416-1.066,2.968-1.088,4.544
	v21.333c0,2.751,1.062,5.395,2.965,7.381c2.411,2.517,25.536,24.619,93.035,24.619s90.624-22.101,93.035-24.619
	c1.903-1.986,2.966-4.631,2.965-7.381v-21.333C351.987,179.762,351.637,178.21,350.965,176.789z"/>
<circle style="fill:#607D8B;" cx="255.989" cy="96" r="96"/>
<path style="fill:#90A4AE;" d="M213.323,106.667c-5.891,0-10.667-4.776-10.667-10.667c0-29.455,23.878-53.333,53.333-53.333
	c5.891,0,10.667,4.776,10.667,10.667S261.88,64,255.989,64c-17.673,0-32,14.327-32,32
	C223.989,101.891,219.214,106.667,213.323,106.667z"/>
<g>
</g>
<g>
</g>
<g>
</g>
<g>
</g>
<g>
</g>
<g>
</g>
<g>
</g>
<g>
</g>
<g>
</g>
<g>
</g>
<g>
</g>
<g>
</g>
<g>
</g>
<g>
</g>
<g>
</g>
</svg>
